<svg width="55" height="55" version="1.1" xmlns="http://www.w3.org/2000/svg" xmlns:xlink="http://www.w3.org/1999/xlink" viewBox="0 0 256 256" >
<metadata> Svg Vector Icons : http://www.onlinewebfonts.com/icon </metadata>
<g> <path fill="#2e0c09" d="M230.8,137.6c-8.1-25.2-19.3-48.7-33.4-70c-24.1-36.5-48-53.5-49-54.2c-1.3-1-3-1.2-4.6-0.6 c-1.5,0.6-2.7,1.8-3.2,3.4l-7,24.2c-6.8-5.6-13.9-10.8-21.3-15.5c-1.7-1.1-3.8-1.1-5.4,0s-2.6,3-2.3,4.9l4,30.4l-75.2,72.4l0,0 l-21.8,21c-1.7,1.6-2,4.1-0.9,6.2c7.4,13.1,21.1,20.5,35.1,20.5c5.4,0,10.9-1.1,16.1-3.4c7.4,7.7,15.3,14.9,23.6,21.4l-13.3,38.7 c-0.5,1.6-0.3,3.3,0.7,4.6c1,1.3,2.5,2.1,4.1,2.1h164c2.8,0,5.1-2.3,5.1-5.1C246,203,240.9,169,230.8,137.6z"/> <path fill="#ffffff" d="M71.1,171.7l29.3-17.1L89,188C82.8,182.9,76.8,177.4,71.1,171.7z"/> <path fill="#eb7768" d="M217.1,233.5c0-14.9-1.7-59.1-20.7-106.1c-1.1-2.6-4-3.8-6.6-2.8c0,0,0,0-0.1,0c-2.6,1.1-3.8,4-2.7,6.6 c18.4,45.4,20,87.9,20,102.1c-39.4-1.7-77.1-15-109.5-38.8l17-49.6c0.7-2,0.1-4.2-1.6-5.6c-1.6-1.3-3.9-1.5-5.8-0.5L64,164 c-7.5-8.5-14.4-17.6-20.6-27.2l4.7-4.5l8.5,11.6c1,1.3,2.5,2.1,4.1,2.1c1,0,2.1-0.3,3-1c2.2-1.7,2.7-4.8,1.1-7.1l-9.2-12.7l62-59.7 c1.2-1.1,1.7-2.7,1.5-4.3l-2.9-21.8c5,3.6,9.9,7.4,14.5,11.4l-3.8,13.2c-0.8,2.7,0.8,5.5,3.5,6.3c2.7,0.8,5.5-0.8,6.3-3.5l2.4-8.3 c3.5,3.4,6.8,6.9,10,10.5l-6.7,5.8c-2.1,1.8-2.4,5-0.6,7.2c1,1.2,2.4,1.8,3.9,1.8c1.2,0,2.3-0.4,3.3-1.2l6.7-5.7 c2.5,3.2,5,6.5,7.4,9.9l-5.2,3.6c-2.3,1.6-2.8,4.8-1.2,7.1c1,1.4,2.6,2.2,4.1,2.2c1,0,2-0.3,2.9-0.9l5-3.5c3,4.8,5.8,9.7,8.5,14.7 c1.3,2.5,4.3,3.4,6.8,2.1c0,0,0,0,0.1,0c2.5-1.3,3.4-4.4,2.1-6.9c-2.9-5.4-5.9-10.7-9.2-15.8l5.5-3.9c2.3-1.6,2.8-4.8,1.2-7.1 c-1.6-2.3-4.8-2.9-7.1-1.2l-5.3,3.7c-2.6-3.6-5.2-7.2-8-10.6l6.3-5.4c2.1-1.8,2.4-5,0.6-7.2c-1.8-2.1-5-2.4-7.1-0.6l-6.2,5.3 c-4.6-5.2-9.5-10.2-14.6-15l6.2-21.4c8.3,7.1,24.5,22.5,40.7,47c20.9,31.6,45.7,84.9,46.8,160.4L217.1,233.5L217.1,233.5z  M94,204.5c17.8,12.7,37.1,22.4,57.3,29H84.1L94,204.5z M21.6,157.9L36,144.1c5.7,8.6,11.9,16.8,18.6,24.6 C42.6,172.3,29.3,168.1,21.6,157.9z"/> <path fill="#f4ada5" d="M189,73.1c-16.2-24.5-32.4-39.9-40.7-47l-6.2,21.4c5.1,4.7,10,9.7,14.6,15l6.2-5.3c2.1-1.8,5.3-1.6,7.1,0.6 c1.8,2.1,1.6,5.3-0.6,7.2l-6.3,5.4c2.7,3.4,5.4,7,8,10.6l5.3-3.7c2.3-1.6,5.4-1.1,7.1,1.2c1.6,2.3,1.1,5.5-1.2,7.1l-5.5,3.9 c3.2,5.1,6.3,10.4,9.2,15.8c1.3,2.5,0.4,5.5-2.1,6.9c0,0,0,0-0.1,0c2.1,4.2,4,8.4,5.8,12.6c0,0,0,0,0.1,0c2.6-1.1,5.5,0.2,6.6,2.8 c19.1,47,20.8,91.2,20.7,106.1h18.8C234.7,158,209.9,104.7,189,73.1L189,73.1z"/> <path fill="#2e0c09" d="M115.5,100.5l-12.4,8.5c-0.9,0.6-1.9,0.9-2.9,0.9c-1.6,0-3.2-0.8-4.2-2.2c-1.6-2.3-1-5.5,1.3-7.1l12.4-8.5 c2.3-1.6,5.5-1,7.1,1.3C118.4,95.8,117.8,98.9,115.5,100.5z"/> <path fill="#2e0c09" d="M109.7,92.2l-12.4,8.5c-2.3,1.6-2.9,4.8-1.3,7.1c1,1.4,2.6,2.2,4.2,2.2c1,0,2-0.3,2.9-0.9l12.4-8.5 c2.3-1.6,2.9-4.8,1.3-7.1C115.2,91.2,112,90.6,109.7,92.2z"/></g>
</svg>