<svg width="45" height="45" version="1.1" xmlns="http://www.w3.org/2000/svg" xmlns:xlink="http://www.w3.org/1999/xlink" viewBox="0 0 256 256" >
<metadata> Svg Vector Icons : http://www.onlinewebfonts.com/icon </metadata>
<g><g><g>
<path fill="#2D60FF" d="M150.9,15.4c-10.6,1-20.8,3.9-31.2,9.1c-8.1,4.1-14.2,8.3-20.8,14.6c-19.3,18.4-28.7,42.6-27,69.4c1.1,17.4,8,35,19.2,48.6c4.5,5.5,13.1,13.4,18.7,17.1c2.8,1.9,7.9,4.9,11.4,6.5l6.2,3.1l11.6-11.5c13.1-13,13.6-13.3,20-13.3c6.2,0,7.5,0.9,20.2,13.5c6,6,11.3,10.8,11.7,10.8c0.4,0,3.1-1.2,6-2.6c20.3-9.8,35.6-26.6,43.8-47.8c6.2-16,7.2-34.9,2.9-52.1c-8.1-32.2-34.6-57.5-67.1-64C167.3,15.1,159.5,14.7,150.9,15.4z M162.1,57.5c1.2,1.1,1.3,1.5,1.6,5.2l0.2,3.9l3.4,1.1c7.4,2.2,13,6.6,15.5,11.9c3,6.7,1.4,11.4-3.8,11.4c-2.3,0-3.9-1.7-4.9-5c-0.4-1.5-1.3-3.3-2-4.1c-1.2-1.4-6.5-4.4-7.8-4.4c-0.5,0-0.6,2-0.6,10.3v10.3l4,1.3c5.3,1.7,9.3,4,12.2,7.1c3.2,3.4,4.3,6.2,4.3,11.5c0,3.7-0.2,4.5-1.6,7.3c-2.7,5.5-8.6,10-15.6,11.9l-3,0.8l-0.2,3.9c-0.2,3.2-0.4,4.1-1.4,5.1c-1.5,1.6-3.4,2-5.5,1.1c-2.4-1-3.2-2.8-3.2-6.9v-3.4l-2.1-0.3c-3.1-0.5-9.3-3.7-12.1-6.2c-4.2-3.8-6.9-10.4-5.9-14.2c0.5-1.8,2.7-3.5,4.6-3.5c2.7,0,4.9,2.2,5.5,5.6c0.6,3.1,3.4,5.7,7.9,7.5l2,0.8V117v-10.5l-3.9-1.2c-6.9-2.2-12.3-6.1-14.7-10.6c-5.4-10.7,1.7-23.2,15.6-27.1l2.9-0.8l0.2-3.8c0.1-3.6,0.2-3.9,1.7-5.2C157.5,55.9,160.2,55.8,162.1,57.5z"/>
<path fill="#2D60FF" d="M150.4,78.4c-2.4,1.1-5.3,3.6-6.3,5.4c-1.5,2.9-0.5,6.6,2.3,8.8c1.3,1,6.1,3.2,6.9,3.2c0.1,0,0.2-4.1,0.2-9.1c0-7-0.1-9.1-0.6-9.1C152.7,77.5,151.6,77.9,150.4,78.4z"/><path fill="#000000" d="M164,109.1c-0.1,0.2-0.3,4.3-0.3,9.1c0,9.9-0.1,9.6,3.7,7.9c4.4-2,7.3-6.2,6.7-9.5c-0.3-1.8-1.6-3.6-3.6-5C168.8,110.5,164.4,108.7,164,109.1z"/>
<path fill="#2D60FF" d="M13.3,107.8c-1.9,0.8-3.3,2.7-3.3,4.9v2l52.9,52.9c52.4,52.4,53,52.9,54.8,52.9c1.9,0,2.3-0.4,21.4-19.5l19.5-19.5l14.4,14.4l14.4,14.4l-11.7,11.7c-11.6,11.6-11.7,11.7-11.7,13.8c0,1.6,0.3,2.3,1.5,3.5l1.5,1.5h27.6h27.6l1.3-1.2c0.7-0.7,1.4-2,1.7-2.9c0.6-2.2,0.6-50.6,0-53.3c-0.6-2.6-2.4-4.1-5-4.1c-1.9,0-2.2,0.2-13.6,11.6c-6.4,6.4-11.8,11.6-12,11.6c-0.3,0-7.9-7.5-17.1-16.6c-11-11.1-17-16.7-17.9-16.9c-0.7-0.1-2,0-2.9,0.4c-1,0.4-9.3,8.4-20.4,19.5L117.8,208l-49.8-49.8c-28.2-28.2-50.4-50-51.2-50.3C15.2,107.2,14.6,107.2,13.3,107.8z"/>
</g></g></g>
</svg>