<svg width="50" height="50" version="1.1" xmlns="http://www.w3.org/2000/svg" xmlns:xlink="http://www.w3.org/1999/xlink" viewBox="0 0 256 256">
<metadata> Svg Vector Icons : http://www.onlinewebfonts.com/icon </metadata>
<g><g>
<path fill="#2e0c09" d="M128,10C62.8,10,10,62.8,10,128c0,65.2,52.8,118,118,118c65.2,0,118-52.8,118-118C246,62.8,193.2,10,128,10z M128,241.6c-29.5,0-56.5-11.3-77.1-29.2c2.1-38.5,32.4-69,70.5-72.2c-19.9-3.2-35.2-20.5-35.2-41.3c0-23.1,18.7-41.8,41.8-41.8c23.1,0,41.8,18.7,41.8,41.8c0,20.9-15.2,38.1-35.2,41.3c38.1,3.2,68.4,33.7,70.5,72.2C184.5,230.3,157.5,241.6,128,241.6z"/>
</g></g>
</svg>